# xmcd
#
# Track frame offsets: 
#        150
#        15597
#        30142
#        45460
#        59697
#        75317
#        91677
#        106025
#        120825
#        134622
#        149382
#        163625
#        177332
#        191692
#        204890
#        219060
#        232580
#        246190
#        260517
#        275797
#        290232
#        304235
#
# Disc length: 4238 seconds
#
# Revision: 2
# Processed by: cddbd v1.5.2PL0 Copyright (c) Steve Scherf et al.
# Submitted via: ExactAudioCopyFreeDBPlugin 1.0
#
DISCID=24108c16
DTITLE=Bessie Smith - The Complete Recordings [Frog Records]
DYEAR=2002
DGENRE=Blues
TTITLE0=Lou'siana Low Down Blues
TTITLE1=Mountain Top Blues
TTITLE2=Work House Blues
TTITLE3=House Rent Blues
TTITLE4=Salt Water Blues
TTITLE5=Rainy Weather Blues
TTITLE6=Weeping Willow Blues
TTITLE7=The Bye Bye Blues
TTITLE8=Sing Sing Prison Blues
TTITLE9=Follow the Deal on Down
TTITLE10=Sinful Blues
TTITLE11=Woman's Trouble Blues
TTITLE12=Love Me Daddy Blues
TTITLE13=Dying Gambler's Blues
TTITLE14=The St. Louis Blues
TTITLE15=Reckless Blues
TTITLE16=Sobbin' Hearted Blues
TTITLE17=Cold in Hand Blues
TTITLE18=You've Been a Good Old Wagon
TTITLE19=Cake Walkin' Babies (From Home)
TTITLE20=The Yellow Dog Blues (take 1)
TTITLE21=The Yellow Dog Blues (take 2)
EXTD=
EXTT0=
EXTT1=
EXTT2=
EXTT3=
EXTT4=
EXTT5=
EXTT6=
EXTT7=
EXTT8=
EXTT9=
EXTT10=
EXTT11=
EXTT12=
EXTT13=
EXTT14=
EXTT15=
EXTT16=
EXTT17=
EXTT18=
EXTT19=
EXTT20=
EXTT21=
PLAYORDER=
